<svg width="692" height="409" viewBox="0 0 692 409" fill="none" xmlns="http://www.w3.org/2000/svg">
<path d="M455.809 359.563L583.269 358.137C611.347 359.975 624.308 349.771 623.516 321.281L624.878 149.581C624.657 119.316 606.023 118.809 592.681 117.605L383.744 112.598C365.015 112.534 340.455 103.312 326.637 90.6361L318.493 83.3789C299.669 66.0758 279.513 50.7692 253.939 50.6741L107.94 52.6073C80.591 51.5932 61.0061 55.1425 60.8477 87.9424L62.4956 251.244C63.7632 283.569 77.7705 294.851 105.215 293.995L299.637 301.569C322.93 301.601 335.923 305.404 359.089 317.732L396.103 342.387C418.319 356.331 438.759 359.595 455.84 359.627L455.809 359.563Z" fill="#1501FE"/>
<path d="M691.269 105.213C689.051 105.498 686.769 105.593 684.424 105.467C663.286 104.294 647.092 86.2304 648.233 65.0927C648.265 64.4272 648.487 62.8743 648.55 62.2405L400.57 62.1454C375.756 62.0504 351.862 52.6699 333.576 35.8739C308.667 12.9615 276.089 0.190144 242.244 0.0633813L41.4514 0C41.8 2.44018 41.8317 4.15148 41.6733 6.68673C41.2613 14.134 38.726 20.9159 34.733 26.5885C33.814 28.0146 32.7682 29.3139 31.659 30.4548C31.5956 30.5181 31.5322 30.6132 31.4689 30.6766C31.2787 30.8667 31.0886 31.0569 30.8984 31.247C23.4511 38.9479 12.8347 43.5113 1.26763 42.8775C0.855649 42.8775 0.44367 42.7824 0 42.7507L0.0950727 302.234C2.3768 301.949 4.72191 301.822 7.09871 301.949C28.2364 303.121 44.4303 321.185 43.2895 342.323C43.1944 343.844 42.9726 345.745 42.719 347.203H284.709C315.544 347.298 345.428 357.851 369.482 377.151L381.778 387.038C399.398 401.204 421.359 408.937 443.955 409H649.532C648.835 405.799 648.708 403.422 648.898 399.968C650.071 378.83 668.135 362.637 689.272 363.777C689.716 363.777 690.16 363.872 690.572 363.904C690.73 363.904 690.825 363.904 690.825 363.904L691.174 105.276L691.269 105.213ZM595.373 369.165L461.511 367.358C443.574 367.327 422.12 363.904 398.796 349.231L359.911 323.34C335.573 310.41 321.914 306.417 297.48 306.386L93.2657 305.086C64.4272 306.005 49.7544 294.153 48.3917 260.181L46.6804 78.688C46.8705 44.2402 67.4061 40.5007 96.1495 41.5782L249.501 42.8775C276.343 43.0043 297.544 59.0714 317.287 77.2302L325.844 84.8677C340.326 98.1777 366.122 107.875 385.802 107.938L605.26 106.544C619.299 107.812 638.853 108.35 639.106 140.105L637.68 330.439C638.504 360.387 624.909 371.098 595.405 369.165H595.373Z" fill="#1501FE"/>
</svg>
