<svg width="374" height="36" viewBox="0 0 374 36" fill="none" xmlns="http://www.w3.org/2000/svg">
<path d="M0 35.7354V0.603516H15.7107C18.0171 0.603516 20.1205 1.11668 22.0096 2.13173C23.8987 3.15241 25.4044 4.56784 26.5266 6.37237C27.6488 8.1769 28.207 10.2859 28.207 12.6939C28.207 15.1018 27.6544 17.1037 26.5491 18.8913C25.4439 20.6789 23.989 22.0943 22.1844 23.1319L25.3987 28.7542C25.5341 28.9572 25.6976 29.1151 25.9006 29.2335C26.1036 29.3519 26.3348 29.4083 26.6055 29.4083H34.5285V35.7298H25.5002C24.0961 35.7298 22.816 35.3802 21.66 34.6753C20.504 33.9704 19.5904 33.0512 18.925 31.9177L14.9607 24.7898H7.18428V35.7298H0.00563821L0 35.7354ZM7.17864 18.4683H14.8592C15.9983 18.4683 17.0359 18.2428 17.972 17.7917C18.9081 17.3405 19.6524 16.6807 20.2051 15.8067C20.7577 14.9382 21.034 13.9006 21.034 12.6939C21.034 11.4871 20.7521 10.4551 20.1825 9.58105C19.613 8.71262 18.8686 8.05283 17.9494 7.59606C17.0302 7.14493 15.9983 6.91936 14.8648 6.91936H7.18428V18.4627L7.17864 18.4683Z" fill="#1501FE"/>
<path d="M30.5193 35.7353L41.9611 4.51696C42.5307 3.01131 43.4217 1.88348 44.6454 1.12783C45.8691 0.377823 47.245 0 48.7845 0C50.324 0 51.7112 0.360908 52.9518 1.07708C54.1868 1.79889 55.0778 2.92672 55.6135 4.46621L67.1061 35.7353H59.2282L56.871 28.6582H40.5119L38.0532 35.7353H30.5249H30.5193ZM42.666 22.3367H54.762L49.6924 6.93052C49.6247 6.69931 49.5176 6.53014 49.3653 6.42863C49.2131 6.32713 49.0383 6.27638 48.8409 6.27638C48.6435 6.27638 48.4744 6.33277 48.339 6.45119C48.2037 6.56961 48.1022 6.72751 48.0401 6.93052L42.6717 22.3367H42.666Z" fill="#1501FE"/>
<path d="M69.2601 35.7354V10.8442C69.2601 8.93818 69.7168 7.2126 70.6417 5.67311C71.5608 4.13362 72.8015 2.90429 74.3579 1.98511C75.9143 1.06592 77.6286 0.603516 79.5008 0.603516H92.2001V6.925H80.3072C79.2357 6.925 78.3222 7.30847 77.5722 8.08103C76.8222 8.85359 76.4444 9.77278 76.4444 10.8442V16.5172H90.4971V22.8387H76.4444V35.7354H69.2657H69.2601Z" fill="#1501FE"/>
<path d="M96.864 35.7354V10.8442C96.864 8.93818 97.3207 7.2126 98.2455 5.67311C99.1647 4.13362 100.405 2.90429 101.962 1.98511C103.518 1.06592 105.232 0.603516 107.105 0.603516H125.443V6.925H107.911C106.84 6.925 105.926 7.30847 105.176 8.08103C104.426 8.85359 104.048 9.77278 104.048 10.8442V16.5172H118.101V22.8387H104.048V35.7354H96.8696H96.864Z" fill="#1501FE"/>
<path d="M134.905 35.7354C132.83 35.7354 131.009 35.2561 129.435 34.3031C127.862 33.3501 126.644 32.0756 125.77 30.491C124.902 28.9008 124.467 27.1526 124.467 25.2466V0.603516H131.646V26.0981C131.646 27.0004 131.962 27.7786 132.599 28.4327C133.236 29.0869 134.003 29.4139 134.905 29.4139H158.285V35.7354H134.905Z" fill="#1501FE"/>
<path d="M157.693 35.7357C155.753 35.7357 153.988 35.2677 152.398 34.3316C150.808 33.3955 149.545 32.1323 148.609 30.542C147.673 28.9518 147.205 27.1868 147.205 25.2469C147.205 23.8427 147.503 22.5175 148.107 21.2826C148.71 20.0476 149.528 18.9592 150.565 18.0175C149.528 17.0814 148.71 15.993 148.107 14.7524C147.503 13.5174 147.205 12.2092 147.205 10.8388C147.205 8.93281 147.667 7.20723 148.586 5.66774C149.505 4.12825 150.746 2.89892 152.302 1.97974C153.859 1.06055 155.573 0.598145 157.445 0.598145H171.898V6.91963H158.246C157.541 6.91963 156.898 7.09445 156.312 7.44408C155.725 7.7937 155.257 8.26175 154.908 8.84822C154.558 9.4347 154.383 10.0945 154.383 10.8332C154.383 11.5719 154.558 12.181 154.908 12.7674C155.257 13.3539 155.725 13.822 156.312 14.1716C156.898 14.5212 157.541 14.696 158.246 14.696H170.19V21.0175H158.545C157.772 21.0175 157.073 21.2092 156.436 21.5927C155.799 21.9762 155.297 22.4893 154.93 23.1209C154.564 23.7581 154.378 24.4574 154.378 25.23C154.378 26.0025 154.564 26.7018 154.93 27.339C155.297 27.9762 155.799 28.4781 156.436 28.8447C157.073 29.2112 157.772 29.3973 158.545 29.3973H171.893V35.7188H157.688L157.693 35.7357Z" fill="#1501FE"/>
<path d="M201.65 35.7354C199.575 35.7354 197.754 35.2561 196.18 34.3031C194.607 33.3501 193.389 32.0756 192.515 30.491C191.646 28.9008 191.212 27.1526 191.212 25.2466V0.603516H198.391V26.0981C198.391 27.0004 198.707 27.7786 199.344 28.4327C199.981 29.0869 200.748 29.4139 201.65 29.4139H227.85V35.7354H201.65Z" fill="#1501FE"/>
<path d="M224.433 35.7357C222.493 35.7357 220.728 35.2677 219.138 34.3316C217.547 33.3955 216.284 32.1323 215.348 30.542C214.412 28.9518 213.944 27.1868 213.944 25.2469C213.944 23.8427 214.243 22.5175 214.846 21.2826C215.45 20.0476 216.267 18.9592 217.305 18.0175C216.267 17.0814 215.45 15.993 214.846 14.7524C214.243 13.5174 213.944 12.2092 213.944 10.8388C213.944 8.93281 214.406 7.20723 215.325 5.66774C216.245 4.12825 217.485 2.89892 219.042 1.97974C220.598 1.06055 222.312 0.598145 224.185 0.598145H238.638V6.91963H224.985C224.28 6.91963 223.638 7.09445 223.051 7.44408C222.465 7.7937 221.997 8.26175 221.647 8.84822C221.297 9.4347 221.123 10.0945 221.123 10.8332C221.123 11.5719 221.297 12.181 221.647 12.7674C221.997 13.3539 222.465 13.822 223.051 14.1716C223.638 14.5212 224.28 14.696 224.985 14.696H236.929V21.0175H225.284C224.512 21.0175 223.812 21.2092 223.175 21.5927C222.538 21.9762 222.036 22.4893 221.67 23.1209C221.303 23.7581 221.117 24.4574 221.117 25.23C221.117 26.0025 221.303 26.7018 221.67 27.339C222.036 27.9762 222.538 28.4781 223.175 28.8447C223.812 29.2112 224.512 29.3973 225.284 29.3973H244.271V35.7188H224.427L224.433 35.7357Z" fill="#1501FE"/>
<path d="M240.646 35.7353L252.087 4.51696C252.657 3.01131 253.548 1.88348 254.772 1.12783C255.995 0.377823 257.371 0 258.911 0C260.45 0 261.838 0.360908 263.078 1.07708C264.313 1.79889 265.204 2.92672 265.74 4.46621L277.232 35.7353H269.354L266.997 28.6582H250.638L248.179 35.7353H240.651H240.646ZM252.792 22.3367H264.888L259.819 6.93052C259.751 6.69931 259.644 6.53014 259.492 6.42863C259.339 6.32713 259.165 6.27638 258.967 6.27638C258.77 6.27638 258.601 6.33277 258.465 6.45119C258.33 6.56961 258.228 6.72751 258.166 6.93052L252.798 22.3367H252.792Z" fill="#1501FE"/>
<path d="M279.995 35.7354V0.603516H291.837C295.582 0.603516 298.83 1.35352 301.576 2.85918C304.317 4.36483 306.454 6.44003 307.977 9.0848C309.499 11.7296 310.261 14.7578 310.261 18.1695C310.261 21.5812 309.499 24.6094 307.977 27.2541C306.454 29.8989 304.323 31.9741 301.576 33.4798C298.83 34.9854 295.587 35.7354 291.837 35.7354H279.995ZM287.174 29.4139H291.843C294.02 29.4139 295.948 28.9628 297.64 28.0605C299.332 27.1583 300.657 25.8613 301.633 24.1695C302.603 22.4778 303.088 20.4815 303.088 18.1695C303.088 15.8574 302.603 13.8217 301.633 12.1469C300.663 10.472 299.332 9.1863 297.64 8.28404C295.948 7.38177 294.02 6.93064 291.843 6.93064H287.174V29.4139Z" fill="#1501FE"/>
<path d="M324.257 35.7357C322.317 35.7357 320.552 35.2677 318.962 34.3316C317.372 33.3955 316.109 32.1323 315.172 30.542C314.236 28.9518 313.768 27.1868 313.768 25.2469C313.768 23.8427 314.067 22.5175 314.671 21.2826C315.274 20.0476 316.092 18.9592 317.129 18.0175C316.092 17.0814 315.274 15.993 314.671 14.7524C314.067 13.5174 313.768 12.2092 313.768 10.8388C313.768 8.93281 314.231 7.20723 315.15 5.66774C316.069 4.12825 317.31 2.89892 318.866 1.97974C320.422 1.06055 322.137 0.598145 324.009 0.598145H338.462V6.91963H324.81C324.105 6.91963 323.462 7.09445 322.876 7.44408C322.289 7.7937 321.821 8.26175 321.471 8.84822C321.122 9.4347 320.947 10.0945 320.947 10.8332C320.947 11.5719 321.122 12.181 321.471 12.7674C321.821 13.3539 322.289 13.822 322.876 14.1716C323.462 14.5212 324.105 14.696 324.81 14.696H336.754V21.0175H325.109C324.336 21.0175 323.637 21.2092 323 21.5927C322.362 21.9762 321.861 22.4893 321.494 23.1209C321.127 23.7581 320.941 24.4574 320.941 25.23C320.941 26.0025 321.127 26.7018 321.494 27.339C321.861 27.9762 322.362 28.4781 323 28.8447C323.637 29.2112 324.336 29.3973 325.109 29.3973H346.351V35.7188H324.252L324.257 35.7357Z" fill="#1501FE"/>
<path d="M343.983 35.7354V0.603516H359.694C362 0.603516 364.103 1.11668 365.993 2.13173C367.882 3.15241 369.387 4.56784 370.509 6.37237C371.632 8.1769 372.19 10.2859 372.19 12.6939C372.19 15.1018 371.637 17.1037 370.532 18.8913C369.427 20.6789 367.972 22.0943 366.167 23.1319L369.382 28.7542C369.517 28.9572 369.681 29.1151 369.884 29.2335C370.087 29.3519 370.318 29.4083 370.588 29.4083H374V35.7298H369.483C368.079 35.7298 366.799 35.3802 365.643 34.6753C364.487 33.9704 363.573 33.0512 362.908 31.9177L358.944 24.7898H351.167V35.7298H343.989L343.983 35.7354ZM351.162 18.4683H358.842C359.981 18.4683 361.019 18.2428 361.955 17.7917C362.891 17.3405 363.635 16.6807 364.188 15.8067C364.741 14.9382 365.017 13.9006 365.017 12.6939C365.017 11.4871 364.735 10.4551 364.165 9.58105C363.596 8.71262 362.851 8.05283 361.932 7.59606C361.013 7.14493 359.981 6.91936 358.848 6.91936H351.167V18.4627L351.162 18.4683Z" fill="#1501FE"/>
</svg>
